<?xml version="1.0" standalone="no"?>
<!DOCTYPE svg PUBLIC "-//W3C//DTD SVG 20010904//EN"
 "http://www.w3.org/TR/2001/REC-SVG-20010904/DTD/svg10.dtd">
<svg version="1.0" xmlns="http://www.w3.org/2000/svg"
 width="640.000000pt" height="640.000000pt" viewBox="0 0 640.000000 640.000000"
 preserveAspectRatio="xMidYMid meet">
<metadata>
Created by potrace 1.14, written by Peter Selinger 2001-2017
</metadata>
<g transform="translate(0.000000,640.000000) scale(0.100000,-0.100000)"
fill="#000000" stroke="none">
<path d="M3115 6302 c-3 -3 -58 -7 -122 -9 -235 -8 -207 -2 -373 -80 -41 -20
-80 -36 -86 -37 -7 -1 -20 -8 -30 -16 -15 -13 -16 -13 -9 -1 5 9 -2 7 -17 -5
-14 -10 -34 -34 -44 -51 -9 -18 -21 -33 -26 -33 -11 0 -73 -67 -74 -80 -1 -6
-2 -15 -3 -22 0 -6 -4 -8 -7 -5 -4 4 -19 -2 -34 -13 -16 -11 -33 -20 -38 -20
-5 0 -17 -12 -27 -26 -12 -19 -19 -23 -25 -14 -10 16 -50 3 -50 -16 0 -8 -4
-14 -9 -14 -5 0 -11 -14 -15 -31 -3 -17 -19 -43 -36 -57 -16 -15 -30 -34 -30
-44 0 -10 -4 -18 -10 -18 -18 0 -34 -45 -35 -102 -2 -49 1 -57 19 -63 20 -6
19 -7 -9 -20 -16 -8 -23 -15 -15 -15 8 -1 2 -8 -15 -15 l-30 -13 25 -5 c23 -4
23 -4 3 -6 -16 -1 -21 -6 -17 -16 4 -8 1 -15 -5 -15 -6 0 -11 -11 -11 -25 0
-14 5 -25 12 -25 6 0 3 -10 -8 -21 -11 -13 -15 -23 -8 -26 13 -4 10 -242 -4
-270 -4 -10 -9 -34 -10 -53 -1 -19 -6 -78 -11 -130 -10 -107 -9 -170 1 -170 4
0 4 -10 0 -22 -5 -13 -5 -63 0 -113 4 -49 7 -106 7 -125 -1 -19 -2 -45 -2 -57
1 -16 -5 -23 -17 -23 -16 0 -14 -5 11 -32 16 -18 29 -38 29 -45 0 -6 7 -16 16
-21 12 -6 15 -17 11 -32 -5 -21 -4 -21 24 6 16 15 29 36 29 46 0 10 11 64 24
121 21 89 39 189 51 289 2 16 11 41 18 56 8 15 20 47 26 72 22 84 41 175 41
193 0 10 7 25 15 34 8 8 13 19 9 24 -3 5 2 16 11 25 9 9 14 22 11 30 -3 7 -1
14 4 16 9 3 59 128 65 163 17 101 45 164 73 165 6 0 12 4 12 10 0 5 7 7 15 4
8 -4 15 -1 15 5 0 8 17 10 53 6 28 -3 46 -2 40 1 -7 3 -13 10 -13 16 0 6 33 9
90 6 50 -2 90 0 90 4 0 5 13 2 29 -7 17 -8 32 -11 35 -7 3 5 30 5 60 1 78 -10
150 9 139 37 -6 17 -4 17 40 -1 47 -20 49 -19 42 8 -5 19 -4 20 5 4 8 -12 18
-15 35 -11 13 3 30 2 37 -2 7 -5 22 -10 32 -11 11 -2 25 -8 33 -14 7 -6 13 -8
13 -3 0 5 5 2 10 -6 6 -10 10 -11 10 -2 0 6 11 12 25 12 14 0 24 -5 23 -12 -2
-6 15 -17 37 -24 22 -7 36 -13 30 -13 -11 -1 15 -21 29 -21 4 0 6 6 3 13 -5
14 89 18 110 4 7 -4 21 -3 32 2 14 8 28 7 53 -3 18 -8 68 -17 111 -21 42 -4
77 -12 77 -17 0 -6 11 -8 25 -6 13 3 23 2 21 -1 -2 -3 37 -19 87 -34 51 -16
99 -31 107 -35 8 -3 19 -4 23 -3 5 1 6 -3 3 -8 -4 -5 -1 -13 5 -16 5 -4 8 -13
5 -20 -2 -7 2 -16 11 -19 9 -4 13 -9 10 -13 -3 -3 0 -18 8 -34 8 -15 15 -39
15 -53 0 -13 6 -37 14 -53 8 -15 25 -50 36 -78 12 -27 30 -59 40 -70 19 -21
40 -125 35 -180 -1 -16 2 -41 8 -55 5 -14 14 -115 18 -225 12 -258 22 -387 32
-402 12 -18 47 -16 47 2 0 9 7 18 15 21 8 4 15 17 15 30 0 13 5 24 10 24 6 0
10 9 10 20 0 11 6 20 13 20 7 1 4 6 -6 15 -17 12 -18 20 -8 83 6 39 8 78 4 88
-4 12 -3 15 5 10 8 -5 12 2 13 21 0 15 2 46 4 68 11 150 20 570 12 617 -2 15
0 25 4 22 10 -6 10 -6 14 91 1 39 0 75 -4 80 -3 6 -6 33 -7 61 -1 54 -27 109
-73 152 -15 14 -19 22 -10 22 10 1 9 3 -3 11 -13 7 -15 15 -9 32 9 22 -10 53
-23 40 -3 -4 -6 3 -6 15 0 11 -4 23 -8 26 -4 2 -9 21 -10 42 -3 42 -8 54 -23
54 -6 0 -7 -4 -4 -10 3 -6 -1 -7 -9 -4 -9 3 -16 11 -16 18 0 6 -10 16 -22 21
-13 6 -27 20 -33 33 -5 12 -16 22 -23 22 -7 0 -35 22 -61 48 -41 41 -47 52
-43 82 3 29 2 32 -12 21 -13 -11 -18 -10 -31 2 -8 9 -15 20 -15 25 0 6 -7 12
-15 16 -11 4 -14 13 -9 30 5 22 1 27 -32 41 -21 9 -54 18 -74 21 -19 3 -51 16
-70 29 -19 14 -37 20 -40 15 -3 -5 -14 -1 -23 10 -9 11 -27 20 -39 20 -33 0
-152 26 -174 38 -15 8 -33 6 -72 -7 -45 -15 -54 -16 -60 -4 -5 8 -26 16 -47
19 -63 8 -174 11 -180 6z"/>
<path d="M3810 5227 c0 -8 7 -18 16 -21 11 -4 14 -1 12 11 -4 21 -28 30 -28
10z"/>
<path d="M2754 5145 c-19 -14 -19 -14 3 -15 30 0 54 10 47 21 -8 13 -28 11
-50 -6z"/>
<path d="M3563 5109 c9 -5 17 -17 17 -24 0 -18 0 -18 41 -1 l34 14 -28 11
c-16 6 -40 11 -55 11 -23 -1 -25 -2 -9 -11z"/>
<path d="M3705 5080 c3 -5 10 -10 16 -10 5 0 9 5 9 10 0 6 -7 10 -16 10 -8 0
-12 -4 -9 -10z"/>
<path d="M3680 5059 c0 -5 5 -7 10 -4 6 3 10 8 10 11 0 2 -4 4 -10 4 -5 0 -10
-5 -10 -11z"/>
<path d="M3715 5040 c3 -5 13 -10 21 -10 8 0 14 5 14 10 0 6 -9 10 -21 10 -11
0 -17 -4 -14 -10z"/>
<path d="M2560 4839 c-25 -12 -61 -28 -80 -36 -56 -24 -64 -29 -68 -41 -2 -8
8 -12 27 -12 21 0 31 5 31 15 0 8 7 15 15 15 8 0 15 -4 15 -10 0 -5 7 -10 15
-10 8 0 15 7 15 15 0 18 1 18 59 4 24 -5 60 -11 81 -13 21 -2 44 -8 51 -12 7
-4 38 -9 68 -11 30 -2 61 -8 68 -14 10 -9 13 -6 14 12 0 16 3 19 6 9 8 -19 23
-30 45 -30 12 0 15 5 11 18 -6 15 -5 15 10 3 9 -7 17 -11 17 -7 0 11 -29 76
-33 76 -3 0 -21 7 -42 16 -25 10 -34 11 -29 3 5 -9 1 -10 -17 -5 -83 24 -144
35 -149 27 -6 -10 -46 -8 -56 2 -11 11 -26 8 -74 -14z"/>
<path d="M3818 4799 c-9 -13 -29 -21 -65 -26 -29 -3 -50 -10 -47 -15 3 -5 -15
-6 -43 -2 -77 10 -223 -24 -223 -51 0 -8 -2 -20 -5 -27 -5 -12 13 -14 97 -11
57 1 108 3 113 3 43 4 222 -22 241 -35 24 -15 113 -21 115 -7 0 4 2 17 5 29 3
17 -3 26 -24 37 -15 8 -37 24 -49 36 -13 11 -23 16 -23 10 0 -5 -9 -2 -19 7
-11 9 -18 20 -15 25 3 4 -2 8 -10 8 -9 0 -13 6 -10 14 8 22 -23 27 -38 5z
m167 -135 c6 2 12 -2 12 -10 0 -10 -6 -13 -16 -8 -39 16 -49 15 -54 -3 -3 -11
-4 -8 -4 8 1 24 4 26 26 18 13 -6 30 -8 36 -5z"/>
<path d="M2355 4680 c-3 -6 1 -7 9 -4 18 7 21 14 7 14 -6 0 -13 -4 -16 -10z"/>
<path d="M3405 4680 c3 -5 8 -10 11 -10 2 0 4 5 4 10 0 6 -5 10 -11 10 -5 0
-7 -4 -4 -10z"/>
<path d="M2685 4621 c-60 -7 -60 -7 -30 -20 l30 -13 -55 -17 c-30 -10 -72 -28
-93 -41 -29 -17 -36 -19 -31 -6 3 9 10 13 15 10 5 -3 9 5 9 18 0 17 3 19 9 9
7 -11 10 -11 17 1 5 9 23 22 39 31 38 21 12 22 -46 2 -56 -19 -140 -90 -132
-111 3 -8 12 -13 19 -10 9 3 14 -2 14 -14 0 -11 -5 -20 -11 -20 -5 0 -7 -5 -4
-10 4 -6 15 -8 25 -5 10 3 21 1 25 -5 3 -6 11 -7 17 -4 6 4 14 1 19 -7 6 -11
12 -9 29 6 18 16 20 16 14 2 -7 -18 11 -24 21 -6 5 6 12 4 22 -8 10 -13 16
-15 19 -5 8 18 35 15 28 -3 -6 -14 11 -21 39 -16 4 1 10 -6 13 -14 4 -8 14
-15 25 -15 15 0 18 -7 15 -35 -2 -30 2 -37 26 -49 20 -11 28 -11 28 -3 0 8 3
8 8 -1 8 -12 39 -7 52 7 3 3 24 19 47 34 41 28 69 79 56 100 -3 6 -1 7 5 3 19
-11 14 9 -9 38 -15 19 -17 26 -7 26 8 0 19 -5 26 -12 9 -9 10 -5 3 18 -5 16
-13 43 -18 59 -18 63 -140 101 -278 86z m40 -31 c-3 -5 -12 -10 -18 -10 -7 0
-6 4 3 10 19 12 23 12 15 0z m115 -40 c8 -5 12 -11 10 -14 -3 -2 -14 2 -24 10
-22 15 -10 19 14 4z m-170 -51 c0 -10 -7 -19 -15 -19 -15 0 -21 31 -9 43 11
10 24 -3 24 -24z m-186 -3 c-3 -9 -10 -16 -15 -16 -5 0 -4 9 3 20 14 22 21 20
12 -4z m116 3 c0 -11 15 -33 32 -50 31 -28 31 -29 9 -29 -31 0 -91 29 -98 48
-4 8 4 22 18 33 31 24 39 24 39 -2z m160 17 c0 -3 -4 -8 -10 -11 -5 -3 -10 -1
-10 4 0 6 5 11 10 11 6 0 10 -2 10 -4z m71 -23 c12 -32 -1 -48 -48 -56 -38 -8
-40 -4 -13 30 11 14 20 32 20 39 0 25 30 15 41 -13z m94 -42 c-3 -6 -11 -11
-17 -11 -6 0 -6 6 2 15 14 17 26 13 15 -4z m-225 -52 c0 -6 -4 -7 -10 -4 -5 3
-10 11 -10 16 0 6 5 7 10 4 6 -3 10 -11 10 -16z"/>
<path d="M3970 4603 c0 -16 16 -30 38 -35 25 -7 27 -1 8 25 -13 17 -46 24 -46
10z"/>
<path d="M3460 4584 c-60 -20 -72 -27 -84 -50 -6 -10 -15 -22 -20 -25 -5 -4
-5 -12 -2 -18 4 -6 3 -11 -2 -11 -5 0 -15 -18 -22 -39 -10 -32 -10 -44 1 -70
8 -17 17 -31 21 -31 5 0 8 -8 8 -17 0 -19 77 -93 98 -93 6 0 12 -4 12 -10 0
-5 -7 -7 -15 -4 -8 4 -15 1 -15 -5 0 -6 8 -12 18 -13 9 0 23 -2 30 -2 7 -1 18
-12 25 -26 16 -32 57 -40 57 -11 0 16 6 21 25 21 17 0 25 5 25 18 0 10 7 28
16 40 9 13 13 29 11 36 -3 8 5 22 17 33 18 16 33 19 92 15 38 -2 90 -5 117 -5
26 -1 47 -5 47 -8 0 -7 46 -29 61 -29 6 0 6 6 0 18 -12 23 -3 71 10 50 14 -22
11 9 -3 34 -57 97 -135 153 -263 188 -103 28 -206 33 -265 14z m270 -54 c0 -5
-4 -10 -10 -10 -5 0 -10 5 -10 10 0 6 5 10 10 10 6 0 10 -4 10 -10z m-173 -52
c-2 -7 2 -28 9 -45 12 -30 4 -47 -11 -23 -4 6 -10 8 -15 5 -14 -9 -22 33 -10
55 12 22 35 28 27 8z m63 -14 c0 -8 -4 -12 -10 -9 -5 3 -10 10 -10 16 0 5 5 9
10 9 6 0 10 -7 10 -16z m90 -9 c0 -8 -4 -15 -10 -15 -5 0 -10 7 -10 15 0 8 5
15 10 15 6 0 10 -7 10 -15z m73 -31 c-4 -10 0 -12 11 -8 10 4 16 1 16 -9 0
-14 -31 -30 -81 -41 -39 -8 -40 1 -5 37 33 34 69 47 59 21z m-380 -9 c-3 -9
-8 -14 -10 -11 -3 3 -2 9 2 15 9 16 15 13 8 -4z m57 5 c0 -5 -2 -10 -4 -10 -3
0 -8 5 -11 10 -3 6 -1 10 4 10 6 0 11 -4 11 -10z"/>
<path d="M3928 4593 c7 -3 16 -2 19 1 4 3 -2 6 -13 5 -11 0 -14 -3 -6 -6z"/>
<path d="M3270 4421 c0 -6 5 -13 10 -16 6 -3 10 1 10 9 0 9 -4 16 -10 16 -5 0
-10 -4 -10 -9z"/>
<path d="M1866 4314 c-3 -9 -6 -23 -6 -31 0 -13 3 -13 15 -3 17 14 20 36 6 44
-5 3 -12 -1 -15 -10z"/>
<path d="M3040 4219 c-16 -29 -9 -30 20 -3 20 19 21 24 8 24 -10 0 -22 -9 -28
-21z"/>
<path d="M3237 4223 c-14 -13 -6 -23 19 -23 22 0 25 -2 14 -15 -10 -12 -10
-15 1 -16 8 0 5 -4 -6 -9 -19 -9 -19 -9 3 -16 22 -6 32 -44 12 -44 -5 0 -10 5
-10 10 0 6 -4 10 -10 10 -21 0 -9 -31 16 -40 35 -14 34 -14 34 25 0 24 5 35
15 35 15 0 21 16 8 22 -5 2 -15 16 -24 32 -16 28 -57 45 -72 29z"/>
<path d="M4353 4189 c-17 -18 -19 -27 -12 -53 6 -20 5 -61 -2 -107 -6 -41 -13
-94 -15 -119 -4 -44 -4 -44 26 30 21 50 33 103 39 160 11 114 5 129 -36 89z"/>
<path d="M3585 4140 c3 -5 8 -10 11 -10 2 0 4 5 4 10 0 6 -5 10 -11 10 -5 0
-7 -4 -4 -10z"/>
<path d="M3340 4110 c0 -5 5 -10 10 -10 6 0 10 5 10 10 0 6 -4 10 -10 10 -5 0
-10 -4 -10 -10z"/>
<path d="M2012 4075 c0 -16 2 -22 5 -12 2 9 2 23 0 30 -3 6 -5 -1 -5 -18z"/>
<path d="M3935 4080 c3 -5 10 -10 16 -10 5 0 9 5 9 10 0 6 -7 10 -16 10 -8 0
-12 -4 -9 -10z"/>
<path d="M3330 4069 c0 -5 5 -7 10 -4 6 3 10 8 10 11 0 2 -4 4 -10 4 -5 0 -10
-5 -10 -11z"/>
<path d="M1882 4045 c0 -16 2 -22 5 -12 2 9 2 23 0 30 -3 6 -5 -1 -5 -18z"/>
<path d="M3346 4025 c4 -8 8 -15 10 -15 2 0 4 7 4 15 0 8 -4 15 -10 15 -5 0
-7 -7 -4 -15z"/>
<path d="M3377 4010 c-18 -21 -22 -40 -9 -40 5 0 19 -18 31 -41 19 -32 22 -51
19 -91 -5 -52 -18 -68 -55 -68 -16 0 -23 6 -23 20 0 13 -10 22 -36 29 -44 12
-58 7 -73 -26 -10 -22 -9 -25 4 -20 8 4 15 2 15 -3 0 -5 10 -10 23 -12 16 -2
22 -10 22 -28 0 -35 30 -57 52 -38 15 11 16 11 9 -6 -7 -20 -7 -20 14 -1 18
16 23 17 30 5 5 -8 12 -12 15 -8 4 3 1 15 -6 26 -11 18 -10 23 12 41 13 11 27
20 32 21 15 0 49 43 57 70 6 22 4 33 -13 51 -12 13 -21 27 -19 32 1 5 -2 5 -8
2 -7 -4 -14 2 -17 14 -3 11 -9 19 -13 16 -10 -6 -25 13 -36 48 -9 27 -9 27
-27 7z"/>
<path d="M4217 4014 c-12 -13 -7 -71 7 -83 11 -9 14 -6 18 18 5 31 -13 77 -25
65z"/>
<path d="M3255 3970 c-3 -5 -1 -10 4 -10 6 0 11 5 11 10 0 6 -2 10 -4 10 -3 0
-8 -4 -11 -10z"/>
<path d="M2797 3898 c13 -58 28 -78 55 -78 30 0 31 3 19 35 -5 11 -4 25 2 33
13 16 10 18 -40 27 -40 6 -41 6 -36 -17z"/>
<path d="M1937 3882 c-16 -19 -12 -42 9 -42 7 0 21 -11 30 -25 15 -23 44 -35
44 -18 0 22 -26 70 -45 85 -21 16 -24 16 -38 0z"/>
<path d="M2958 3819 c-22 -13 -24 -41 -3 -33 9 4 30 8 48 9 18 2 37 3 44 4 7
1 10 8 7 16 -7 17 -69 20 -96 4z"/>
<path d="M4237 3787 c-19 -14 -49 -82 -40 -91 13 -12 31 -5 36 14 3 12 14 20
26 20 25 0 29 33 7 55 -11 11 -17 11 -29 2z"/>
<path d="M4125 3476 c-6 -23 -4 -32 10 -42 24 -18 40 -6 22 14 -8 10 -17 26
-19 37 -4 17 -6 15 -13 -9z"/>
<path d="M3036 3439 c3 -5 -9 -10 -25 -10 -33 -2 -37 -2 -61 -11 -8 -3 -45
-13 -81 -21 -87 -20 -142 -44 -134 -57 4 -6 13 -9 20 -6 7 2 17 0 22 -5 5 -5
26 -11 47 -13 20 -2 39 -6 43 -10 11 -11 60 -6 72 7 15 19 3 29 -20 16 -21
-11 -26 0 -8 18 8 8 19 6 40 -4 16 -8 37 -12 45 -9 9 3 22 -1 31 -9 10 -11 19
-13 27 -6 13 11 56 4 56 -10 0 -4 -4 -11 -10 -14 -15 -9 -12 -25 6 -25 8 0 12
5 9 10 -3 6 -1 10 4 10 6 0 11 7 11 15 0 17 16 20 25 5 4 -6 11 -8 16 -4 5 3
17 0 25 -7 10 -8 18 -9 25 -2 6 6 19 8 30 6 35 -9 20 -21 -25 -19 -34 1 -42
-2 -35 -11 13 -15 -23 -36 -46 -27 -10 4 -21 1 -26 -7 -7 -11 -9 -10 -9 5 0
12 -5 16 -16 12 -9 -3 -20 -6 -25 -6 -5 0 -9 -8 -9 -17 0 -15 2 -16 10 -3 6
10 10 11 10 3 0 -29 187 -7 245 29 20 12 166 40 180 34 8 -3 15 -1 15 4 0 13
-52 60 -67 60 -7 0 -13 5 -13 10 0 6 -6 10 -12 10 -7 0 -24 9 -38 20 -14 11
-35 20 -48 20 -13 0 -30 6 -38 14 -11 11 -44 15 -144 14 -74 0 -128 -4 -124
-9z m-73 -46 c-7 -2 -19 -2 -25 0 -7 3 -2 5 12 5 14 0 19 -2 13 -5z m-86 -49
c-3 -3 -12 -4 -19 -1 -8 3 -5 6 6 6 11 1 17 -2 13 -5z m398 -84 c3 -5 -1 -10
-9 -10 -8 0 -18 5 -21 10 -3 6 1 10 9 10 8 0 18 -4 21 -10z"/>
<path d="M4178 3413 c7 -3 16 -2 19 1 4 3 -2 6 -13 5 -11 0 -14 -3 -6 -6z"/>
<path d="M3563 3366 c-4 -7 -15 -15 -23 -18 -12 -5 -12 -7 3 -13 19 -8 47 10
47 31 0 18 -17 18 -27 0z"/>
<path d="M3138 3273 c7 -3 16 -2 19 1 4 3 -2 6 -13 5 -11 0 -14 -3 -6 -6z"/>
<path d="M3035 3060 c3 -5 8 -10 11 -10 2 0 4 5 4 10 0 6 -5 10 -11 10 -5 0
-7 -4 -4 -10z"/>
<path d="M3183 2656 c-40 -11 -41 -12 -22 -24 12 -8 18 -9 15 -4 -3 5 8 12 24
14 24 4 27 2 19 -9 -9 -10 -7 -13 7 -13 27 0 49 36 28 44 -18 7 -15 7 -71 -8z"/>
<path d="M3300 2660 c-12 -8 -11 -10 8 -10 12 0 22 5 22 10 0 13 -11 13 -30 0z"/>
<path d="M2895 2650 c-3 -5 1 -10 9 -10 9 0 16 5 16 10 0 6 -4 10 -9 10 -6 0
-13 -4 -16 -10z"/>
<path d="M4045 2546 l0 -104 -50 -98 c-27 -54 -63 -116 -80 -137 -58 -77 -70
-94 -116 -163 -26 -38 -58 -81 -72 -96 -14 -15 -23 -29 -21 -31 3 -2 -7 -12
-21 -21 -15 -10 -25 -26 -25 -41 0 -14 -3 -25 -7 -25 -5 0 -24 -16 -45 -35
-24 -23 -35 -41 -31 -53 3 -12 -2 -22 -11 -25 -16 -6 -20 -64 -4 -84 5 -7 5
-14 -2 -18 -5 -3 -10 -10 -10 -14 0 -12 59 -71 71 -71 5 0 7 -4 4 -10 -6 -10
13 -15 48 -12 12 1 16 -2 11 -11 -5 -8 -2 -8 9 2 19 15 23 26 5 15 -6 -4 -2 9
11 29 12 20 19 42 15 49 -5 10 -4 10 6 1 11 -10 10 -17 -4 -37 -9 -14 -16 -28
-16 -32 0 -13 32 20 46 48 16 31 37 39 28 11 -4 -13 -3 -15 4 -5 5 7 7 24 4
38 -2 13 3 39 11 56 8 18 27 62 42 98 15 36 32 74 39 85 7 11 22 47 34 80 11
33 40 103 65 155 24 52 54 130 68 173 16 52 28 77 39 77 11 0 12 2 3 8 -8 5
-11 21 -7 42 3 19 5 49 5 65 -1 28 0 29 11 10 7 -11 13 -22 14 -25 0 -3 3 -12
7 -20 3 -8 8 -26 10 -40 3 -20 5 -18 6 8 1 35 -41 171 -65 209 -10 15 -11 24
-3 29 8 4 7 9 -2 15 -8 5 -16 9 -19 9 -3 0 -5 -47 -5 -104z m-370 -1026 c-3
-5 -11 -10 -16 -10 -6 0 -7 5 -4 10 3 6 11 10 16 10 6 0 7 -4 4 -10z"/>
<path d="M3100 2600 c0 -5 6 -10 14 -10 8 0 18 5 21 10 3 6 -3 10 -14 10 -12
0 -21 -4 -21 -10z"/>
<path d="M4135 2563 c10 -16 27 -36 37 -46 28 -28 38 -61 38 -131 0 -35 5
-100 11 -145 9 -68 8 -90 -4 -129 -9 -26 -21 -76 -28 -112 -11 -60 -47 -171
-70 -212 -5 -10 -9 -22 -9 -28 0 -6 -9 -32 -21 -58 -12 -26 -29 -65 -39 -87
-25 -58 -86 -183 -111 -230 -43 -81 -45 -85 -30 -85 5 0 11 8 15 18 3 9 16 35
29 57 32 55 52 93 73 140 11 22 22 42 27 43 4 2 7 10 7 18 0 8 9 34 20 56 11
23 20 45 20 50 0 5 9 27 19 51 11 23 33 83 50 132 25 72 30 81 26 45 -3 -25
-8 -66 -10 -93 -3 -26 -9 -56 -15 -66 -5 -11 -7 -26 -4 -34 3 -8 0 -18 -6 -22
-8 -5 -8 -10 0 -20 25 -30 3 -123 -56 -244 -31 -64 -59 -118 -63 -121 -6 -5
-26 -40 -64 -115 -11 -22 -27 -48 -35 -57 -8 -10 -10 -18 -5 -18 10 0 34 31
59 75 6 11 20 36 32 55 12 19 44 80 72 135 29 55 54 102 57 105 8 9 -9 -94
-18 -106 -5 -6 -6 -13 -3 -17 3 -3 -6 -27 -20 -54 -25 -47 -35 -89 -57 -228
-17 -107 -30 -104 -24 5 4 67 3 91 -4 80 -6 -8 -11 -35 -11 -60 0 -25 -7 -92
-15 -150 -8 -58 -22 -167 -32 -243 -15 -123 -19 -136 -35 -131 -22 7 -24 -9
-3 -26 8 -7 15 -24 15 -37 0 -18 -4 -24 -15 -19 -9 3 -15 0 -15 -9 0 -8 7 -15
15 -15 9 0 15 -9 15 -25 0 -18 -4 -23 -15 -19 -8 4 -15 11 -15 18 0 7 -3 7 -8
-2 -5 -7 -9 -42 -10 -79 -2 -61 -13 -95 -27 -82 -3 3 -1 39 4 80 5 41 10 162
11 269 1 107 3 206 4 220 2 14 7 70 10 125 4 55 10 110 13 122 7 30 -33 99
-53 91 -4 -2 -9 8 -11 21 -2 12 -12 35 -23 49 -15 19 -19 34 -14 55 4 19 3 27
-4 23 -6 -3 -13 -3 -15 1 -9 15 13 106 30 125 22 25 10 23 -36 -7 -22 -13 -41
-21 -44 -17 -2 4 -2 1 -1 -5 2 -7 -19 -26 -46 -41 -28 -16 -47 -31 -44 -34 3
-4 -2 -20 -10 -37 -18 -34 -21 -54 -5 -31 8 11 9 8 4 -15 -4 -16 -11 -32 -16
-33 -6 -3 -6 -9 0 -16 7 -8 8 -37 2 -82 -5 -38 -7 -292 -6 -564 4 -626 3 -590
14 -590 5 0 9 221 8 528 0 290 2 550 5 577 3 28 6 65 6 83 2 25 6 32 22 32 16
0 20 -7 20 -35 0 -44 18 -46 22 -3 2 22 9 34 20 36 17 3 18 -24 15 -442 -1
-245 1 -446 6 -446 4 0 7 18 7 40 0 171 11 701 15 765 6 72 14 94 38 95 5 0 7
-12 6 -27 -3 -44 0 -63 11 -63 6 0 10 7 10 15 0 9 9 15 21 15 19 0 21 -4 16
-35 -3 -19 -1 -37 4 -41 5 -3 7 -20 5 -37 -3 -18 -8 -79 -11 -137 -3 -58 -7
-141 -10 -185 -3 -44 -8 -159 -10 -255 -3 -96 -7 -193 -9 -215 -10 -77 -26
-234 -26 -250 0 -8 7 -15 15 -15 12 0 15 13 15 60 0 60 0 60 29 60 17 0 33 5
37 11 4 7 -3 10 -17 9 -51 -4 -51 -4 -44 63 4 34 9 64 11 66 2 3 11 -4 19 -15
8 -11 14 -14 15 -6 0 7 10 16 22 21 l23 8 -23 7 c-18 6 -21 12 -16 29 4 12 6
39 5 59 -1 30 1 36 16 34 16 -3 18 -17 21 -134 2 -102 0 -132 -10 -132 -7 0
-5 -5 5 -11 11 -7 18 -21 17 -37 -4 -55 0 -92 10 -92 6 0 10 28 10 65 0 60 2
65 21 65 21 0 22 -3 16 -65 l-6 -65 1189 0 1190 0 0 799 0 799 -37 0 c-22 0
-142 35 -278 81 -132 45 -377 122 -545 172 -290 86 -724 227 -874 284 -39 15
-88 42 -111 63 -22 20 -68 59 -101 87 -58 48 -89 82 -174 192 -35 46 -126 113
-154 113 -4 0 0 -12 9 -27z m-445 -1288 c0 -8 -4 -15 -10 -15 -5 0 -10 7 -10
15 0 8 5 15 10 15 6 0 10 -7 10 -15z m460 -132 c0 -19 -3 -24 -10 -17 -6 6 -8
18 -4 27 9 24 14 21 14 -10z m-6 -100 c-8 -66 -10 -71 -26 -55 -8 8 -9 18 -1
35 6 13 9 35 6 50 -4 20 -1 27 11 27 14 0 15 -8 10 -57z m-113 -94 l-9 -34 -1
31 c-1 17 2 34 6 37 12 13 14 -1 4 -34z m101 -41 c-6 -76 -22 -84 -22 -12 0
34 3 64 6 67 15 15 21 -6 16 -55z m-115 -35 c-3 -10 -5 -4 -5 12 0 17 2 24 5
18 2 -7 2 -21 0 -30z m60 -15 c-3 -7 -5 -2 -5 12 0 14 2 19 5 13 2 -7 2 -19 0
-25z m-70 -60 c-3 -7 -5 -2 -5 12 0 14 2 19 5 13 2 -7 2 -19 0 -25z m110 -15
c-3 -10 -5 -2 -5 17 0 19 2 27 5 18 2 -10 2 -26 0 -35z m-29 -19 c0 -51 -1
-55 -21 -52 -16 2 -21 9 -19 23 2 11 9 23 14 26 7 4 6 9 -1 13 -19 12 -13 46
8 46 16 0 18 -8 19 -56z m-1 -181 c-3 -60 -11 -149 -17 -200 -12 -91 -13 -92
-44 -99 l-31 -7 28 -9 c25 -9 36 -36 20 -52 -4 -3 -7 -21 -7 -39 -1 -25 -6
-33 -23 -35 -22 -3 -23 0 -25 70 0 40 -2 99 -4 131 -2 46 1 59 15 67 12 6 22
5 29 -2 5 -5 15 -7 21 -4 23 14 10 26 -29 26 l-40 0 3 57 c2 46 6 58 20 61 10
2 21 -5 26 -20 7 -16 10 -18 10 -6 1 9 9 21 19 27 16 9 16 10 0 16 -13 5 -17
19 -16 58 1 62 3 67 30 67 19 0 20 -4 15 -107z m-66 65 c0 -18 2 -43 5 -55 3
-18 -1 -23 -16 -23 -15 0 -20 7 -20 24 0 14 4 27 9 30 4 3 6 17 3 31 -2 15 0
25 7 25 6 0 11 -15 12 -32z"/>
<path d="M4030 485 c0 -8 2 -15 4 -15 2 0 6 7 10 15 3 8 1 15 -4 15 -6 0 -10
-7 -10 -15z"/>
<path d="M4037 353 c-4 -3 -7 -11 -7 -17 0 -6 5 -5 12 2 6 6 9 14 7 17 -3 3
-9 2 -12 -2z"/>
<path d="M2977 2529 c13 -13 120 -29 207 -29 59 0 67 2 56 15 -9 11 -17 12
-30 5 -29 -15 -45 -13 -31 4 10 11 9 14 -3 12 -9 -1 -19 -5 -22 -9 -11 -11
-46 -8 -39 3 6 10 -35 7 -77 -6 -9 -3 -19 0 -23 6 -3 5 -16 10 -28 10 -15 0
-18 -3 -10 -11z"/>
<path d="M3300 2529 c0 -5 5 -7 10 -4 6 3 10 8 10 11 0 2 -4 4 -10 4 -5 0 -10
-5 -10 -11z"/>
<path d="M2255 2415 c-4 -11 -14 -35 -21 -54 -8 -18 -14 -45 -14 -60 l1 -26
13 25 c14 24 14 24 16 -20 3 -102 5 -120 12 -120 4 0 11 -15 17 -32 16 -55 63
-162 77 -178 7 -9 11 -25 8 -37 -3 -11 -1 -24 5 -27 7 -4 8 -1 5 8 -3 9 -1 16
4 16 6 0 14 -10 17 -21 4 -12 25 -44 46 -73 21 -28 49 -70 61 -93 13 -24 27
-43 33 -43 13 -1 65 -76 65 -95 0 -14 18 -30 34 -30 5 0 11 -6 14 -14 3 -9 0
-11 -8 -6 -9 5 -11 4 -6 -4 4 -6 11 -9 16 -6 11 7 42 -43 34 -57 -4 -6 -3 -8
3 -5 16 10 101 -94 95 -115 -1 -5 5 -8 13 -8 8 0 15 -4 15 -10 0 -5 5 -10 11
-10 6 0 48 -37 94 -82 56 -55 81 -86 77 -97 -3 -9 -1 -12 3 -8 11 10 34 -73
39 -141 2 -36 11 -63 25 -80 12 -15 24 -35 28 -45 6 -18 23 -24 23 -7 0 6 -9
23 -21 39 -11 15 -24 44 -28 64 -8 32 -6 36 16 42 14 3 28 4 31 0 3 -3 -3 -5
-14 -5 -12 0 -5 -7 20 -21 21 -11 42 -17 46 -12 4 4 30 51 57 103 45 85 56
130 34 130 -5 0 -6 10 -4 23 3 17 -3 25 -25 35 -17 7 -37 28 -47 48 -13 27
-21 34 -36 29 -11 -4 -19 -2 -19 4 0 6 7 11 16 11 21 0 7 20 -14 20 -24 1 -61
31 -44 37 6 3 12 9 12 14 0 6 -9 5 -21 -2 -12 -6 -42 -9 -65 -6 -24 2 -44 1
-44 -4 0 -26 -69 29 -70 56 0 6 -13 18 -28 29 -15 10 -36 30 -45 45 -41 65
-63 93 -128 165 -105 116 -149 166 -189 222 -24 33 -62 84 -84 114 -73 98
-126 217 -141 311 -9 60 -15 78 -20 64z"/>
<path d="M2159 2314 c-80 -105 -249 -231 -413 -309 -50 -24 -239 -95 -421
-158 -333 -116 -381 -132 -625 -207 -241 -74 -294 -92 -344 -117 -26 -13 -54
-22 -61 -19 -23 8 -92 -15 -127 -44 -52 -43 -95 -134 -130 -277 l-32 -128 -3
-528 -4 -527 1097 2 1096 3 0 393 c-1 216 -4 401 -7 412 -3 10 -1 29 5 40 9
17 8 24 -4 33 -21 16 -42 71 -51 131 -9 63 7 53 29 -18 10 -30 25 -61 34 -68
15 -11 15 -11 5 2 -20 26 -64 171 -71 235 -9 81 -2 388 9 355 10 -32 1 87 -12
153 -12 61 -12 162 0 224 5 26 14 86 21 133 10 77 18 124 49 285 5 27 8 51 6
53 -1 2 -22 -23 -46 -54z"/>
<path d="M4172 2325 c-17 -37 -14 -45 4 -12 9 16 14 31 11 33 -2 2 -9 -7 -15
-21z"/>
<path d="M4090 2260 c0 -5 5 -10 11 -10 5 0 7 5 4 10 -3 6 -8 10 -11 10 -2 0
-4 -4 -4 -10z"/>
<path d="M4133 2147 c-18 -56 -35 -118 -39 -137 -11 -58 -56 -153 -65 -138 -6
9 -8 5 -7 -12 0 -14 -3 -38 -7 -55 -4 -16 13 11 37 60 25 50 55 128 67 175 12
47 28 111 37 144 24 94 11 73 -23 -37z"/>
<path d="M4039 2179 c-6 -102 -4 -278 2 -244 9 45 12 255 4 263 -3 3 -6 -6 -6
-19z"/>
<path d="M2190 1965 c0 -11 5 -27 10 -35 8 -12 10 -12 10 5 0 11 -5 27 -10 35
-8 12 -10 12 -10 -5z"/>
<path d="M2319 1949 c-3 -39 2 -97 10 -124 7 -22 8 -10 5 49 -2 43 -6 81 -9
84 -3 3 -5 -1 -6 -9z"/>
<path d="M2211 1894 c0 -11 3 -14 6 -6 3 7 2 16 -1 19 -3 4 -6 -2 -5 -13z"/>
<path d="M2220 1856 c0 -8 5 -18 10 -21 6 -3 10 1 10 9 0 8 -4 18 -10 21 -5 3
-10 -1 -10 -9z"/>
<path d="M3892 1833 c-1 -17 -5 -40 -8 -50 -5 -17 -5 -17 6 0 6 9 9 32 7 50
l-4 32 -1 -32z"/>
<path d="M2240 1798 c0 -9 5 -20 10 -23 13 -8 13 5 0 25 -8 13 -10 13 -10 -2z"/>
<path d="M2406 1797 c3 -10 9 -15 12 -12 3 3 0 11 -7 18 -10 9 -11 8 -5 -6z"/>
<path d="M2341 1774 c0 -11 3 -14 6 -6 3 7 2 16 -1 19 -3 4 -6 -2 -5 -13z"/>
<path d="M2162 1760 c0 -14 2 -19 5 -12 2 6 2 18 0 25 -3 6 -5 1 -5 -13z"/>
<path d="M2261 1734 c0 -11 3 -14 6 -6 3 7 2 16 -1 19 -3 4 -6 -2 -5 -13z"/>
<path d="M3920 1739 c0 -5 -4 -8 -9 -4 -6 3 -6 -7 -1 -26 10 -35 -10 -131 -34
-158 -7 -9 -14 -32 -14 -51 -1 -26 2 -31 9 -19 5 9 10 26 12 36 1 11 19 35 39
53 30 28 35 37 27 53 -6 10 -8 26 -4 34 3 9 1 19 -5 23 -6 4 -12 21 -12 38 -1
29 -8 47 -8 21z"/>
<path d="M2171 1704 c0 -11 3 -14 6 -6 3 7 2 16 -1 19 -3 4 -6 -2 -5 -13z"/>
<path d="M2476 1670 c11 -19 38 -61 62 -93 23 -31 47 -67 52 -80 5 -12 9 -16
9 -8 1 16 -28 65 -87 146 -54 74 -59 79 -36 35z"/>
<path d="M2280 1676 c0 -8 4 -17 9 -20 5 -4 7 3 4 14 -6 23 -13 26 -13 6z"/>
<path d="M2182 1660 c0 -14 2 -19 5 -12 2 6 2 18 0 25 -3 6 -5 1 -5 -13z"/>
<path d="M2530 1663 c0 -6 8 -17 18 -24 16 -13 16 -13 2 6 -8 11 -16 22 -17
24 -2 2 -3 0 -3 -6z"/>
<path d="M4137 1643 c-4 -3 -7 -11 -7 -17 0 -6 5 -5 12 2 6 6 9 14 7 17 -3 3
-9 2 -12 -2z"/>
<path d="M2192 1610 c0 -14 2 -19 5 -12 2 6 2 18 0 25 -3 6 -5 1 -5 -13z"/>
<path d="M2301 1614 c0 -11 3 -14 6 -6 3 7 2 16 -1 19 -3 4 -6 -2 -5 -13z"/>
<path d="M3881 1614 c0 -11 3 -14 6 -6 3 7 2 16 -1 19 -3 4 -6 -2 -5 -13z"/>
<path d="M2500 1592 c6 -13 14 -21 18 -18 3 4 -2 14 -12 24 -18 16 -18 16 -6
-6z"/>
<path d="M2205 1565 c3 -11 11 -42 16 -70 10 -47 20 -78 40 -117 5 -10 9 -24
9 -31 0 -7 9 -30 20 -52 11 -22 20 -49 20 -62 0 -12 5 -25 10 -28 6 -3 10 -2
10 3 0 11 -28 98 -44 137 -27 63 -52 143 -60 190 -1 6 -8 19 -15 30 -12 20
-12 20 -6 0z"/>
<path d="M2524 1518 c4 -20 2 -39 -3 -42 -5 -4 -10 -14 -9 -24 0 -9 -5 -42
-12 -72 -6 -30 -12 -62 -14 -70 -5 -29 -45 -105 -78 -148 -25 -33 -29 -45 -19
-51 9 -6 10 -11 2 -15 -6 -4 -11 -2 -11 4 0 6 -5 8 -10 5 -6 -4 -10 -3 -9 2 1
4 -6 24 -15 43 -12 24 -15 27 -11 10 14 -59 15 -69 5 -75 -5 -3 -10 -17 -10
-30 0 -18 -4 -22 -20 -18 -14 4 -22 -1 -29 -18 -11 -31 -5 -38 13 -14 21 30
42 12 49 -42 3 -26 6 -210 6 -408 0 -555 0 -555 11 -555 6 0 8 185 6 505 -4
465 -3 505 12 505 15 1 15 2 -1 15 -10 7 -17 21 -15 31 5 25 35 26 43 0 l6
-21 9 23 c6 13 14 20 20 17 5 -3 10 -2 10 4 0 5 -6 11 -12 13 -9 3 -8 9 5 22
16 17 17 16 19 -16 1 -18 4 -46 6 -63 3 -25 11 -669 12 -947 0 -49 4 -88 9
-88 6 0 9 216 6 566 -3 498 -1 566 12 571 18 7 35 -15 29 -39 -2 -10 0 -18 5
-18 5 0 9 13 9 29 0 40 36 50 44 12 11 -51 18 -312 18 -709 0 -221 4 -405 9
-408 11 -6 11 -8 8 136 -3 171 -3 291 0 425 3 176 -9 584 -20 630 -22 100 3
115 33 20 18 -58 49 -109 33 -55 -17 61 -17 77 1 84 10 4 16 4 12 1 -3 -4 1
-15 10 -26 9 -11 17 -25 17 -32 0 -6 12 -18 28 -25 31 -15 57 -59 57 -96 0
-13 16 -71 35 -128 l35 -103 -5 -165 c-8 -242 -5 -613 5 -646 8 -28 8 -28 10
-4 1 14 0 97 -2 185 -1 88 -2 198 0 245 9 362 9 370 -20 457 -15 45 -30 108
-33 139 -3 31 -8 62 -11 68 -4 6 5 -2 20 -18 29 -33 32 -42 14 -49 -8 -3 -6
-6 4 -6 10 -1 22 -11 29 -22 8 -16 13 -18 19 -9 6 9 9 9 16 -1 22 -34 34 -63
34 -80 0 -10 4 -20 9 -23 5 -3 11 -20 14 -38 4 -18 10 -58 16 -88 9 -50 8
-169 -3 -323 -2 -31 0 -57 3 -57 4 0 13 60 21 134 10 108 10 148 0 207 -7 41
-14 94 -17 118 -5 43 -5 44 21 37 15 -4 26 -2 26 4 0 5 -3 10 -7 10 -5 0 -14
12 -20 27 -9 19 -10 30 -2 40 9 10 7 13 -9 13 -12 0 -23 4 -27 10 -3 5 -12 7
-20 3 -10 -3 -15 1 -15 12 0 9 5 13 10 10 6 -3 10 -1 10 4 0 6 -9 11 -20 11
-19 0 -47 36 -36 47 5 6 -31 83 -39 83 -2 0 -2 -13 1 -29 6 -26 4 -29 -15 -24
-13 3 -21 13 -21 27 0 26 -16 53 -26 44 -4 -4 -15 -3 -25 3 -21 11 -26 49 -6
49 6 0 4 5 -5 11 -10 5 -18 14 -18 20 0 14 -52 58 -68 59 -7 0 -10 5 -7 10 4
6 -7 25 -24 42 -20 20 -29 38 -26 49 3 10 0 21 -6 25 -9 5 -10 2 -6 -9 10 -27
-6 -19 -28 13 -11 16 -23 30 -27 30 -5 0 -8 6 -8 13 0 6 -8 21 -16 32 -15 19
-16 18 -10 -17z m204 -254 c-4 -3 -12 5 -18 18 -12 22 -12 22 6 6 10 -10 15
-20 12 -24z m20 -89 c-3 -3 -9 2 -12 12 -6 14 -5 15 5 6 7 -7 10 -15 7 -18z
m247 -245 c3 -5 1 -10 -4 -10 -6 0 -11 5 -11 10 0 6 2 10 4 10 3 0 8 -4 11
-10z"/>
<path d="M2330 1523 c0 -12 5 -25 10 -28 13 -8 13 15 0 35 -8 12 -10 11 -10
-7z"/>
<path d="M3714 1498 l-19 -23 23 19 c12 11 22 21 22 23 0 8 -8 2 -26 -19z"/>
<path d="M3930 1499 c0 -5 5 -7 10 -4 6 3 10 8 10 11 0 2 -4 4 -10 4 -5 0 -10
-5 -10 -11z"/>
<path d="M3750 1479 c0 -5 5 -7 10 -4 6 3 10 8 10 11 0 2 -4 4 -10 4 -5 0 -10
-5 -10 -11z"/>
<path d="M2350 1470 c0 -8 5 -22 10 -30 9 -13 10 -13 10 0 0 8 -5 22 -10 30
-9 13 -10 13 -10 0z"/>
<path d="M3845 1440 c-4 -12 -5 -24 -2 -27 3 -2 8 5 12 17 4 12 5 24 2 27 -3
2 -8 -5 -12 -17z"/>
<path d="M2152 1420 c0 -14 2 -19 5 -12 2 6 2 18 0 25 -3 6 -5 1 -5 -13z"/>
<path d="M2371 1394 c0 -11 3 -14 6 -6 3 7 2 16 -1 19 -3 4 -6 -2 -5 -13z"/>
<path d="M3831 1384 c0 -11 3 -14 6 -6 3 7 2 16 -1 19 -3 4 -6 -2 -5 -13z"/>
<path d="M2161 1359 c0 -19 5 -43 10 -54 6 -13 7 -4 3 30 -8 60 -14 72 -13 24z"/>
<path d="M2740 1360 c0 -13 18 -22 24 -11 3 5 -1 11 -9 15 -8 3 -15 1 -15 -4z"/>
<path d="M3560 1330 c-8 -5 -12 -12 -9 -15 4 -3 12 1 19 10 14 17 11 19 -10 5z"/>
<path d="M2756 1305 c4 -8 10 -12 15 -9 11 6 2 24 -11 24 -5 0 -7 -7 -4 -15z"/>
<path d="M3495 1274 l-30 -26 33 22 c17 12 32 23 32 26 0 7 -4 5 -35 -22z"/>
<path d="M3539 1273 c-8 -9 -68 -60 -134 -113 -66 -54 -131 -107 -144 -119
-13 -11 -28 -21 -32 -21 -5 0 -13 -9 -20 -21 -13 -26 0 -19 57 29 22 17 66 53
99 79 81 64 153 128 177 158 21 27 19 35 -3 8z"/>
<path d="M3892 1278 c-5 -7 -13 -24 -17 -37 -11 -35 11 -18 23 19 12 32 10 37
-6 18z"/>
<path d="M2181 1264 c0 -11 3 -14 6 -6 3 7 2 16 -1 19 -3 4 -6 -2 -5 -13z"/>
<path d="M2861 1260 c14 -31 19 -36 19 -24 0 6 -7 19 -16 30 -14 18 -14 18 -3
-6z"/>
<path d="M3545 1250 c-3 -5 -1 -10 4 -10 6 0 11 5 11 10 0 6 -2 10 -4 10 -3 0
-8 -4 -11 -10z"/>
<path d="M3430 1229 c-22 -18 -22 -19 -3 -10 12 6 25 16 28 21 9 15 3 12 -25
-11z"/>
<path d="M2191 1235 c1 -19 18 -51 18 -35 0 8 -4 22 -9 30 -5 8 -9 11 -9 5z"/>
<path d="M3380 1200 c-9 -6 -10 -10 -3 -10 6 0 15 5 18 10 8 12 4 12 -15 0z"/>
<path d="M3517 1153 c-8 -26 -18 -97 -22 -158 -12 -180 -4 -979 9 -993 7 -7 8
48 5 253 -7 475 -2 705 17 845 7 52 11 96 10 98 -2 1 -10 -19 -19 -45z"/>
<path d="M3325 1170 c-16 -11 -25 -20 -19 -20 11 0 64 39 54 40 -3 0 -18 -9
-35 -20z"/>
<path d="M2210 1168 c0 -7 5 -20 10 -28 8 -12 10 -11 10 7 0 12 -4 25 -10 28
-5 3 -10 0 -10 -7z"/>
<path d="M2952 1150 c0 -14 2 -19 5 -12 2 6 2 18 0 25 -3 6 -5 1 -5 -13z"/>
<path d="M3449 1133 c-13 -15 -12 -15 9 -4 23 12 28 21 13 21 -5 0 -15 -7 -22
-17z"/>
<path d="M3836 1123 c-11 -11 -6 -23 9 -23 8 0 15 4 15 9 0 13 -16 22 -24 14z"/>
<path d="M3690 1100 c0 -5 7 -10 15 -10 8 0 15 5 15 10 0 6 -7 10 -15 10 -8 0
-15 -4 -15 -10z"/>
<path d="M2990 1095 c0 -5 5 -17 10 -25 5 -8 10 -10 10 -5 0 6 -5 17 -10 25
-5 8 -10 11 -10 5z"/>
<path d="M2246 1065 c2 -11 4 -23 4 -27 0 -15 20 -8 20 7 0 8 -4 15 -9 15 -5
0 -11 6 -14 13 -2 6 -3 3 -1 -8z"/>
<path d="M3400 1040 c0 -5 5 -10 10 -10 6 0 10 5 10 10 0 6 -4 10 -10 10 -5 0
-10 -4 -10 -10z"/>
<path d="M2725 1015 c18 -78 21 -275 12 -685 -3 -162 -2 -304 3 -315 6 -13 9
16 9 85 1 58 4 249 8 425 6 317 -3 469 -29 506 -7 10 -8 5 -3 -16z"/>
<path d="M2406 1021 c-4 -5 -2 -12 3 -15 5 -4 12 -2 15 3 4 5 2 12 -3 15 -5 4
-12 2 -15 -3z"/>
<path d="M2538 1013 c7 -3 16 -2 19 1 4 3 -2 6 -13 5 -11 0 -14 -3 -6 -6z"/>
<path d="M3390 953 c-30 -25 -57 -49 -60 -53 -3 -4 -36 -31 -75 -59 -82 -61
-215 -186 -215 -202 0 -6 8 -3 18 8 9 10 32 32 51 48 l33 30 -6 -32 c-6 -25
-3 -34 15 -47 21 -14 21 -16 6 -40 -9 -13 -41 -46 -72 -72 -30 -26 -55 -52
-55 -56 0 -17 39 13 97 72 53 55 83 74 83 51 0 -5 15 -1 34 8 24 11 41 30 56
63 12 28 39 61 63 80 23 18 45 36 48 41 3 5 10 7 15 5 5 -1 10 6 12 16 4 18 2
18 -24 -2 -16 -12 -45 -35 -64 -51 -41 -36 -60 -39 -67 -11 -5 21 -9 22 -55
22 -34 1 -36 11 -5 26 24 13 83 58 161 125 27 23 56 41 63 41 15 -2 16 5 5 23
-5 8 -25 -3 -62 -34z"/>
<path d="M2236 951 c-18 -19 -18 -18 -16 -793 0 -87 4 -158 8 -158 4 0 7 208
6 463 -2 390 0 465 12 485 18 27 13 29 -10 3z"/>
<path d="M3260 955 c-7 -9 -10 -18 -7 -21 3 -3 10 4 17 15 13 25 8 27 -10 6z"/>
<path d="M3560 960 c0 -5 5 -10 10 -10 6 0 10 5 10 10 0 6 -4 10 -10 10 -5 0
-10 -4 -10 -10z"/>
<path d="M3189 887 c-26 -23 -57 -50 -70 -60 -17 -13 -11 -11 18 4 42 22 111
85 102 93 -2 3 -25 -14 -50 -37z"/>
<path d="M2410 880 c0 -5 5 -10 11 -10 5 0 7 5 4 10 -3 6 -8 10 -11 10 -2 0
-4 -4 -4 -10z"/>
<path d="M3365 850 c-3 -5 -1 -10 4 -10 6 0 11 5 11 10 0 6 -2 10 -4 10 -3 0
-8 -4 -11 -10z"/>
<path d="M2935 770 c-3 -5 -1 -10 4 -10 6 0 11 5 11 10 0 6 -2 10 -4 10 -3 0
-8 -4 -11 -10z"/>
<path d="M2808 753 c7 -3 16 -2 19 1 4 3 -2 6 -13 5 -11 0 -14 -3 -6 -6z"/>
<path d="M2935 639 c-10 -15 3 -25 16 -12 7 7 7 13 1 17 -6 3 -14 1 -17 -5z"/>
<path d="M3335 584 c-27 -25 -70 -64 -95 -88 -25 -23 -74 -65 -108 -94 -35
-29 -76 -67 -90 -85 l-27 -32 30 25 c17 14 41 34 54 45 13 11 56 50 95 87 39
36 100 89 136 118 84 66 87 70 70 70 -8 0 -37 -21 -65 -46z"/>
<path d="M2920 495 c0 -9 5 -15 11 -13 6 2 11 8 11 13 0 5 -5 11 -11 13 -6 2
-11 -4 -11 -13z"/>
<path d="M3390 460 c-8 -5 -60 -52 -115 -104 -54 -53 -103 -96 -107 -96 -4 0
-12 -9 -18 -21 -10 -18 -9 -19 7 -10 10 5 62 53 117 105 54 53 101 96 105 96
3 0 12 9 19 20 14 22 13 23 -8 10z"/>
<path d="M2925 431 c-3 -5 -1 -12 5 -16 5 -3 10 1 10 9 0 18 -6 21 -15 7z"/>
<path d="M2931 385 c-1 -11 -3 -87 -5 -169 -2 -104 -7 -150 -16 -156 -9 -5 -9
-9 -1 -14 6 -4 11 -16 11 -27 0 -10 5 -19 10 -19 6 0 10 9 10 20 0 11 7 20 15
20 8 0 15 5 15 10 0 6 -7 10 -15 10 -24 0 -16 124 8 128 14 3 17 -5 19 -45 1
-28 4 -11 7 42 7 100 2 193 -8 179 -12 -18 -35 -9 -42 16 -6 20 -7 21 -8 5z
m49 -111 c0 -57 -2 -65 -17 -62 -14 3 -18 14 -19 58 -2 62 1 70 22 70 11 0 14
-15 14 -66z"/>
<path d="M3420 389 c0 -5 5 -7 10 -4 6 3 10 8 10 11 0 2 -4 4 -10 4 -5 0 -10
-5 -10 -11z"/>
<path d="M3385 276 c-11 -8 -44 -37 -74 -65 -30 -28 -57 -51 -61 -51 -5 0 -10
-7 -14 -15 -11 -29 13 -15 60 35 26 28 52 50 59 50 6 0 21 14 33 30 25 34 25
36 -3 16z"/>
<path d="M3746 218 c-15 -159 -17 -218 -8 -218 8 0 26 279 18 287 -2 2 -6 -29
-10 -69z"/>
<path d="M3070 170 c-30 -27 -52 -51 -49 -54 3 -3 30 17 59 44 69 65 62 73
-10 10z"/>
<path d="M3895 211 c-3 -5 -1 -12 5 -16 5 -3 10 1 10 9 0 18 -6 21 -15 7z"/>
<path d="M3800 140 c0 -5 5 -10 10 -10 6 0 10 5 10 10 0 6 -4 10 -10 10 -5 0
-10 -4 -10 -10z"/>
<path d="M3196 104 c-26 -26 -18 -39 9 -14 14 13 25 25 25 27 0 9 -20 1 -34
-13z"/>
<path d="M3386 98 c-10 -15 -25 -30 -34 -33 -19 -7 -68 -65 -55 -65 16 1 115
100 111 112 -3 8 -12 2 -22 -14z"/>
<path d="M2980 79 c0 -5 5 -7 10 -4 6 3 10 8 10 11 0 2 -4 4 -10 4 -5 0 -10
-5 -10 -11z"/>
<path d="M3121 35 c-17 -19 -29 -35 -26 -35 11 0 75 52 75 61 0 18 -17 8 -49
-26z"/>
<path d="M2982 40 c0 -14 2 -19 5 -12 2 6 2 18 0 25 -3 6 -5 1 -5 -13z"/>
</g>
</svg>
